<svg xmlns="http://www.w3.org/2000/svg" xmlns:xlink="http://www.w3.org/1999/xlink" fill="none" version="1.1" width="30" height="30" viewBox="0 0 30 30"><defs><clipPath id="master_svg0_0_173"><rect x="0" y="0" width="30" height="30" rx="0"/></clipPath></defs><g style="mix-blend-mode:passthrough"><g style="mix-blend-mode:passthrough" clip-path="url(#master_svg0_0_173)"><g style="mix-blend-mode:passthrough"><g style="mix-blend-mode:passthrough"><path d="M19.699507551944535,5.3013302499999995C20.063807551944535,5.666580249999999,20.096907551944533,6.238130249999999,19.798807551944535,6.640890249999999C19.798807551944535,6.640890249999999,19.699507551944535,6.75628025,19.699507551944535,6.75628025C19.699507551944535,6.75628025,11.476937551944534,15.00000025,11.476937551944534,15.00000025C11.476937551944534,15.00000025,19.699507551944535,23.24370025,19.699507551944535,23.24370025C20.063807551944535,23.60900025,20.096907551944533,24.180500249999998,19.798807551944535,24.58330025C19.798807551944535,24.58330025,19.699507551944535,24.698700249999998,19.699507551944535,24.698700249999998C19.335207551944535,25.06390025,18.765107551944535,25.09710025,18.363397551944537,24.79830025C18.363397551944537,24.79830025,18.248307551944535,24.698700249999998,18.248307551944535,24.698700249999998C18.248307551944535,24.698700249999998,9.300550551944534,15.727500249999999,9.300550551944534,15.727500249999999C8.936256051944534,15.362200249999999,8.903138251944535,14.79067025,9.201197551944535,14.38791025C9.201197551944535,14.38791025,9.300550551944534,14.27252025,9.300550551944534,14.27252025C9.300550551944534,14.27252025,18.248307551944535,5.3013302499999995,18.248307551944535,5.3013302499999995C18.649037551944534,4.899557249999999,19.298707551944535,4.899557249999999,19.699507551944535,5.3013302499999995C19.699507551944535,5.3013302499999995,19.699507551944535,5.3013302499999995,19.699507551944535,5.3013302499999995Z" fill="#0D0D0E" fill-opacity="1"/></g></g></g></g></svg>