<svg xmlns="http://www.w3.org/2000/svg" xmlns:xlink="http://www.w3.org/1999/xlink" fill="none" version="1.1" width="10" height="10.999969482421875" viewBox="0 0 10 10.999969482421875"><g style="mix-blend-mode:passthrough"><g style="mix-blend-mode:passthrough"><path d="M7.56849,2.410069482421875C7.43313,1.055869482421875,6.33212,0.000023758821875,4.99396,0.000023758821875C4.30715,-0.002981647578125,3.64593,0.279253482421875,3.15812,0.784334482421875C2.73468,1.222769482421875,2.47218,1.797759482421875,2.41028,2.410069482421875L2.40981,2.410069482421875C1.47223,2.410069482421875,0.684516,3.125699482421875,0.463214,4.368289482421875L0.0627486,7.596799482421875C-0.278132,9.960799482421875,0.785715,10.999969482421875,2.86776,10.999969482421875L7.12949,10.999969482421875C9.0549,10.999969482421875,10.2057,9.828659482421875,9.96942,7.726539482421875L9.55599,4.389929482421875C9.29095,3.131889482421875,8.52351,2.410069482421875,7.60613,2.410069482421875L7.56849,2.410069482421875ZM6.79673,2.410069482421875C6.66594,1.496829482421875,5.90848,0.796274482421875,4.99235,0.796271482421875C4.50758,0.794152482421875,4.04197,0.992895482421875,3.69847,1.348559482421875C3.41957,1.637329482421875,3.23983,2.010229482421875,3.18208,2.410069482421875L6.79673,2.410069482421875ZM2.40981,3.206329482421875L7.60613,3.206329482421875C8.14413,3.206329482421875,8.61678,3.650879482421875,8.80232,4.526459482421875L9.19369,7.698519482421875C9.42659,9.386169482421876,8.65132,10.203769482421874,7.12949,10.203769482421874L2.86776,10.203769482421874C1.21987,10.203769482421874,0.554831,9.554129482421875,0.82116,7.706679482421875L1.21945,4.491649482421875C1.37165,3.640389482421875,1.84943,3.206329482421875,2.40981,3.206329482421875ZM3.91421,5.082119482421875C3.91421,4.862239482421875,3.74278,4.683989482421875,3.53132,4.683989482421875L3.50795,4.683989482421875L3.456,4.687629482421875C3.26911,4.713989482421875,3.12506,4.880559482421875,3.12506,5.082119482421875C3.12506,5.301999482421875,3.29649,5.480239482421875,3.50795,5.480239482421875L3.53132,5.480239482421875L3.58327,5.476609482421875C3.77016,5.450249482421875,3.91421,5.283669482421875,3.91421,5.082119482421875ZM6.89087,5.082119482421875C6.89087,4.862239482421875,6.71945,4.683989482421875,6.50798,4.683989482421875L6.48462,4.683989482421875L6.43266,4.687629482421875C6.24578,4.713989482421875,6.10173,4.880559482421875,6.10173,5.082119482421875C6.10173,5.301999482421875,6.27316,5.480239482421875,6.48462,5.480239482421875L6.50798,5.480239482421875L6.55994,5.476609482421875C6.74683,5.450249482421875,6.89087,5.283669482421875,6.89087,5.082119482421875Z" fill-rule="evenodd" fill="#FFFFFF" fill-opacity="1"/></g></g></svg>