<svg xmlns="http://www.w3.org/2000/svg" xmlns:xlink="http://www.w3.org/1999/xlink" fill="none" version="1.1" width="24" height="24" viewBox="0 0 24 24"><defs><clipPath id="master_svg0_0_134"><rect x="0" y="0" width="24" height="24" rx="0"/></clipPath></defs><g style="mix-blend-mode:passthrough" clip-path="url(#master_svg0_0_134)"><g style="mix-blend-mode:passthrough"><g style="mix-blend-mode:passthrough"><path d="M16.7609,6.38202C16.5148,3.9198399999999998,14.513,2.000104233,12.07992,2.000104233C10.83118,1.99463985,9.628969999999999,2.507794,8.74204,3.42612C7.97215,4.223269999999999,7.49487,5.26873,7.38232,6.38202L7.38148,6.38202C5.6767900000000004,6.38202,4.24458,7.68318,3.842208,9.94243L3.114088,15.8125C2.4943049999999998,20.1106,4.42857,22.0001,8.214120000000001,22.0001L15.9627,22.0001C19.4635,22.0001,21.5559,19.8704,21.1262,16.048299999999998L20.3746,9.981770000000001C19.8927,7.69442,18.4973,6.38202,16.8293,6.38202L16.7609,6.38202ZM15.3577,6.38202C15.1199,4.721579999999999,13.7427,3.4478400000000002,12.07699,3.4478299999999997C11.19559,3.44398,10.349029999999999,3.80533,9.72448,4.45199C9.2174,4.9770199999999996,8.89059,5.65503,8.78559,6.38202L15.3577,6.38202ZM7.38149,7.82977L16.8294,7.82977C17.8076,7.82977,18.667,8.63805,19.0042,10.23001L19.7159,15.9974C20.1392,19.0659,18.7297,20.5524,15.9628,20.5524L8.21413,20.5524C5.21795,20.5524,4.00879,19.3713,4.49303,16.0122L5.2172,10.16671C5.49392,8.61898,6.36262,7.82977,7.38149,7.82977ZM10.11676,11.24035C10.11676,10.84057,9.80508,10.51648,9.42059,10.51648L9.37811,10.51648L9.28364,10.52309C8.943850000000001,10.57102,8.68195,10.87388,8.68195,11.24035C8.68195,11.64013,8.99363,11.96421,9.37811,11.96421L9.42059,11.96421L9.51506,11.9576C9.85486,11.90967,10.11676,11.60681,10.11676,11.24035ZM15.5289,11.24035C15.5289,10.84057,15.2172,10.51648,14.8327,10.51648L14.7902,10.51648L14.6958,10.52309C14.356,10.57102,14.0941,10.87388,14.0941,11.24035C14.0941,11.64013,14.4058,11.96421,14.7902,11.96421L14.8327,11.96421L14.9272,11.9576C15.267,11.90967,15.5289,11.60681,15.5289,11.24035Z" fill-rule="evenodd" fill="#0D0D0E" fill-opacity="1"/></g></g><g style="opacity:0;mix-blend-mode:passthrough"></g><g style="mix-blend-mode:passthrough"><ellipse cx="21" cy="4" rx="3" ry="3" fill="#FF0000" fill-opacity="1"/></g></g></svg>