<svg xmlns="http://www.w3.org/2000/svg" xmlns:xlink="http://www.w3.org/1999/xlink" fill="none" version="1.1" width="24" height="24" viewBox="0 0 24 24"><defs><clipPath id="master_svg0_0_118"><rect x="0" y="0" width="24" height="24" rx="0"/></clipPath></defs><g style="mix-blend-mode:passthrough" clip-path="url(#master_svg0_0_118)"><g style="mix-blend-mode:passthrough"><g style="mix-blend-mode:passthrough"><path d="M21.55040000000032,8.229659999999996C21.10090000000032,7.384809999999995,20.25570000000032,6.7552799999999955,18.56520000000032,5.496219999999996C15.43590000000032,3.165409999999996,13.87120000000032,1.9999999999999958,12.00000000000032,1.9999999999999958C10.128820000000319,1.9999999999999958,8.56413000000032,3.165409999999996,5.4347600000003204,5.496219999999996C3.7443200000003203,6.7552799999999955,2.89910800000032,7.384809999999995,2.44955400000032,8.229659999999996C2.00000000000032,9.074509999999997,2.00000000000032,10.033389999999997,2.00000000000032,11.951159999999996L2.00000000000032,13.442499999999997C2.00000000000032,17.476599999999994,2.00000000000032,19.493599999999997,3.46447000000032,20.746799999999997C4.92893000000032,21.999999999999996,7.2859500000003194,21.999999999999996,12.00000000000032,21.999999999999996C16.714000000000322,21.999999999999996,19.07110000000032,21.999999999999996,20.53550000000032,20.746799999999997C22.00000000000032,19.493599999999997,22.00000000000032,17.476599999999994,22.00000000000032,13.442499999999997L22.00000000000032,11.951159999999996C22.00000000000032,10.033389999999997,22.00000000000032,9.074509999999997,21.55040000000032,8.229659999999996ZM14.06470000000032,4.175319999999996Q15.00310000000032,4.713389999999996,17.66920000000032,6.699199999999996L17.66920000000032,6.699219999999996Q19.10000000000032,7.7648299999999955,19.53350000000032,8.145469999999996Q20.04580000000032,8.595259999999996,20.22620000000032,8.934209999999997Q20.39490000000032,9.251379999999996,20.45070000000032,9.831499999999997Q20.50000000000032,10.344979999999996,20.50000000000032,11.951159999999996L20.50000000000032,13.442499999999997Q20.50000000000032,16.855199999999996,20.33510000000032,17.904699999999995Q20.14640000000032,19.105499999999996,19.560200000000318,19.607099999999996Q18.90180000000032,20.170599999999997,17.31490000000032,20.353199999999998Q16.03880000000032,20.499999999999996,12.00000000000032,20.499999999999996Q7.961210000000321,20.499999999999996,6.68509000000032,20.353199999999998Q5.09821000000032,20.170599999999997,4.43974000000032,19.607099999999996Q3.8535400000003204,19.105499999999996,3.66488000000032,17.904699999999995Q3.50000000000032,16.855199999999996,3.50000000000032,13.442499999999997L3.50000000000032,11.951159999999996Q3.50000000000032,10.344979999999996,3.5493200000003204,9.831479999999996Q3.60505000000032,9.251339999999995,3.7737500000003203,8.934289999999995Q3.9541400000003204,8.595289999999997,4.466470000000321,8.145479999999996Q4.89998000000032,7.764869999999996,6.3307600000003195,6.6992099999999954L6.330770000000321,6.699199999999996Q8.99697000000032,4.713369999999996,9.93534000000032,4.175319999999996Q11.113100000000319,3.4999999999999956,12.00000000000032,3.4999999999999956Q12.88690000000032,3.4999999999999956,14.06470000000032,4.175319999999996Z" fill-rule="evenodd" fill="#FF7A00" fill-opacity="1"/></g><g style="mix-blend-mode:passthrough" transform="matrix(-1,-8.742277657347586e-8,8.742277657347586e-8,-1,31.9999985138128,34.000001398764425)"><rect x="16.75" y="17.75" width="6.5" height="6.5" rx="3.25" fill-opacity="0" stroke-opacity="1" stroke="#FF7A00" fill="none" stroke-width="1.5"/></g></g><g style="opacity:0;mix-blend-mode:passthrough"></g></g></svg>