<svg xmlns="http://www.w3.org/2000/svg" xmlns:xlink="http://www.w3.org/1999/xlink" fill="none" version="1.1" width="30" height="30" viewBox="0 0 30 30"><defs><clipPath id="master_svg0_0_17"><rect x="0" y="0" width="30" height="30" rx="0"/></clipPath></defs><g style="mix-blend-mode:passthrough" clip-path="url(#master_svg0_0_17)"><g style="mix-blend-mode:passthrough"><g style="mix-blend-mode:passthrough"><ellipse cx="15" cy="13.75" rx="9.25" ry="9.25" fill-opacity="0" stroke-opacity="1" stroke="#0D0D0E" fill="none" stroke-width="1.5"/></g><g style="mix-blend-mode:passthrough" transform="matrix(5.288553595050871e-8,1,-1,-7.575615690313953e-9,48.74999877041129,2.2500001931781988)"><path d="M23.25,41.25C23.25,41.6642,23.585786,42,24,42C24.41421,42,24.75,41.6642,24.75,41.25C24.75,41.25,23.25,41.25,23.25,41.25C23.25,41.25,23.25,41.25,23.25,41.25ZM24.75,26.25C24.75,25.835786,24.41421,25.5,24,25.5C23.585786,25.5,23.25,25.835786,23.25,26.25C23.25,26.25,24.75,26.25,24.75,26.25C24.75,26.25,24.75,26.25,24.75,26.25ZM24.75,41.25C24.75,41.25,24.75,26.25,24.75,26.25C24.75,26.25,23.25,26.25,23.25,26.25C23.25,26.25,23.25,41.25,23.25,41.25C23.25,41.25,24.75,41.25,24.75,41.25C24.75,41.25,24.75,41.25,24.75,41.25Z" fill="#0D0D0E" fill-opacity="1"/></g></g><g style="opacity:0;mix-blend-mode:passthrough"></g></g></svg>