<svg xmlns="http://www.w3.org/2000/svg" xmlns:xlink="http://www.w3.org/1999/xlink" fill="none" version="1.1" width="24" height="24" viewBox="0 0 24 24"><defs><clipPath id="master_svg0_0_126"><rect x="0" y="0" width="24" height="24" rx="0"/></clipPath></defs><g style="mix-blend-mode:passthrough" clip-path="url(#master_svg0_0_126)"><g style="mix-blend-mode:passthrough"><g style="mix-blend-mode:passthrough"><ellipse cx="11.723577499389648" cy="10.723577499389648" rx="8.723577499389648" ry="8.723577499389648" fill-opacity="0" stroke-opacity="1" stroke="#0D0D0E" fill="none" stroke-width="1.5"/></g><g style="mix-blend-mode:passthrough" transform="matrix(0.9926458597183228,0.12105437368154526,-0.12105437368154526,0.9926458597183228,2.242553023002266,-1.8712221306096026)"><path d="M17.80246954925537,17.74110955230713C17.50957654925537,17.448216352307128,17.03470254925537,17.448216352307128,16.741809549255372,17.74110955230713C16.44891634925537,18.03400255230713,16.44891634925537,18.50887655230713,16.741809549255372,18.801769552307128C16.741809549255372,18.801769552307128,17.80246954925537,17.74110955230713,17.80246954925537,17.74110955230713C17.80246954925537,17.74110955230713,17.80246954925537,17.74110955230713,17.80246954925537,17.74110955230713ZM20.01314954925537,22.07310955230713C20.30603954925537,22.36599955230713,20.780919549255373,22.36599955230713,21.073809549255373,22.07310955230713C21.366699549255372,21.78021955230713,21.366699549255372,21.305339552307128,21.073809549255373,21.012449552307128C21.073809549255373,21.012449552307128,20.01314954925537,22.07310955230713,20.01314954925537,22.07310955230713C20.01314954925537,22.07310955230713,20.01314954925537,22.07310955230713,20.01314954925537,22.07310955230713ZM16.741809549255372,18.801769552307128C16.741809549255372,18.801769552307128,20.01314954925537,22.07310955230713,20.01314954925537,22.07310955230713C20.01314954925537,22.07310955230713,21.073809549255373,21.012449552307128,21.073809549255373,21.012449552307128C21.073809549255373,21.012449552307128,17.80246954925537,17.74110955230713,17.80246954925537,17.74110955230713C17.80246954925537,17.74110955230713,16.741809549255372,18.801769552307128,16.741809549255372,18.801769552307128C16.741809549255372,18.801769552307128,16.741809549255372,18.801769552307128,16.741809549255372,18.801769552307128Z" fill="#0D0D0E" fill-opacity="1"/></g></g><g style="opacity:0;mix-blend-mode:passthrough"></g></g></svg>