<svg xmlns="http://www.w3.org/2000/svg" xmlns:xlink="http://www.w3.org/1999/xlink" fill="none" version="1.1" width="24" height="24" viewBox="0 0 24 24"><defs><clipPath id="master_svg0_0_149"><rect x="0" y="0" width="24" height="24" rx="0"/></clipPath></defs><g style="mix-blend-mode:passthrough" clip-path="url(#master_svg0_0_149)"><g style="mix-blend-mode:passthrough"><g style="mix-blend-mode:passthrough"><path d="M19.508743408203124,5.84848L13.572943408203125,2.421485C12.599613408203124,1.859505,11.400353408203125,1.859505,10.426983408203125,2.421485L4.491243408203125,5.84848C3.5178694082031248,6.41046,2.918243408203125,7.44904,2.918243408203125,8.573L2.918243408203125,15.427C2.918243408203125,16.551000000000002,3.5178694082031248,17.5895,4.491243408203125,18.1515L10.426983408203125,21.5785C11.400353408203125,22.1405,12.599613408203124,22.1405,13.572943408203125,21.5785L19.508743408203124,18.1515C20.482143408203125,17.5895,21.081743408203124,16.551000000000002,21.081743408203124,15.427L21.081743408203124,8.573C21.081743408203124,7.44904,20.482143408203125,6.41046,19.508743408203124,5.84848ZM5.241243408203125,7.14752L11.176983408203125,3.72052Q11.999983408203125,3.24536,12.822913408203124,3.72051L18.758743408203124,7.14752Q19.581743408203124,7.62267,19.581743408203124,8.573L19.581743408203124,15.427Q19.581743408203124,16.377299999999998,18.758743408203124,16.8525L12.822953408203125,20.2795Q11.999983408203125,20.7546,11.177003408203126,20.2795L5.241243408203125,16.8525Q4.418243408203125,16.377299999999998,4.418243408203125,15.427L4.418243408203125,8.573Q4.418243408203125,7.62268,5.241243408203125,7.14752Z" fill-rule="evenodd" fill="#0D0D0E" fill-opacity="1"/></g><g style="mix-blend-mode:passthrough" transform="matrix(-1,-8.742277657347586e-8,8.742277657347586e-8,-1,31.999998601235575,32.000001398764425)"><rect x="16.75" y="16.75" width="6.5" height="6.5" rx="3.25" fill-opacity="0" stroke-opacity="1" stroke="#0D0D0E" fill="none" stroke-width="1.5"/></g></g><g style="opacity:0;mix-blend-mode:passthrough"></g></g></svg>