<svg xmlns="http://www.w3.org/2000/svg" xmlns:xlink="http://www.w3.org/1999/xlink" fill="none" version="1.1" width="36" height="36" viewBox="0 0 36 36"><g style="mix-blend-mode:passthrough"><g style="mix-blend-mode:passthrough"><ellipse cx="18" cy="18" rx="18" ry="18" fill="#0D0D0E" fill-opacity="1"/><ellipse cx="18" cy="18" rx="15.5" ry="15.5" fill-opacity="0" stroke-opacity="1" stroke="#FFFFFF" fill="none" stroke-width="5"/></g><g style="mix-blend-mode:passthrough"><g style="mix-blend-mode:passthrough"><path d="M20.56849,14.4101C20.43313,13.0559,19.33212,12.0000542764,17.99396,12.0000542764C17.30715,11.99704887,16.64593,12.279284,16.15812,12.784365C15.73468,13.2228,15.47218,13.797789999999999,15.41028,14.4101L15.40981,14.4101C14.47223,14.4101,13.684516,15.12573,13.463214,16.36832L13.0627486,19.59683C12.721868,21.96083,13.785715,23,15.86776,23L20.12949,23C22.0549,23,23.2057,21.82869,22.96942,19.72657L22.55599,16.389960000000002C22.290950000000002,15.131920000000001,21.52351,14.4101,20.60613,14.4101L20.56849,14.4101ZM19.79673,14.4101C19.66594,13.49686,18.90848,12.796305,17.992350000000002,12.796302C17.50758,12.794183,17.04197,12.992926,16.69847,13.34859C16.41957,13.63736,16.23983,14.01026,16.18208,14.4101L19.79673,14.4101ZM15.40981,15.20636L20.60613,15.20636C21.14413,15.20636,21.61678,15.65091,21.80232,16.52649L22.19369,19.69855C22.426589999999997,21.386200000000002,21.65132,22.2038,20.12949,22.2038L15.86776,22.2038C14.21987,22.2038,13.554831,21.55416,13.82116,19.70671L14.21945,16.49168C14.37165,15.64042,14.84943,15.20636,15.40981,15.20636ZM16.91421,17.08218C16.91421,16.8623,16.74278,16.68405,16.53132,16.68405L16.50795,16.68405L16.456,16.68769C16.26911,16.71405,16.12506,16.88062,16.12506,17.08218C16.12506,17.30206,16.29649,17.4803,16.50795,17.4803L16.53132,17.4803L16.58327,17.47667C16.77016,17.45031,16.91421,17.28373,16.91421,17.08218ZM19.89089,17.08218C19.89089,16.8623,19.719459999999998,16.68405,19.508,16.68405L19.48464,16.68405L19.43268,16.68769C19.24579,16.71405,19.10175,16.88062,19.10175,17.08218C19.10175,17.30206,19.27317,17.4803,19.48464,17.4803L19.508,17.4803L19.55996,17.47667C19.74684,17.45031,19.89089,17.28373,19.89089,17.08218Z" fill-rule="evenodd" fill="#FFFFFF" fill-opacity="1"/></g></g></g></svg>